<svg width="319" height="44" viewBox="0 0 319 44" fill="none" xmlns="http://www.w3.org/2000/svg">
<path d="M176.2 9.55C177.827 9.65 178.927 9.7 179.5 9.7C179.653 9.7 179.773 9.65667 179.86 9.57C179.953 9.47667 180 9.35333 180 9.2V8.25H177.34V6.85H180V6C180 5.6 179.8 5.4 179.4 5.4H176.3V4H179.8C180.5 4 181.007 4.16 181.32 4.48C181.64 4.79333 181.8 5.3 181.8 6V9.2C181.8 9.85333 181.647 10.3333 181.34 10.64C181.033 10.9467 180.553 11.1 179.9 11.1C178.9 11.1 177.667 11.0333 176.2 10.9V9.55ZM184.901 9.55C184.868 10.03 184.715 10.41 184.441 10.69C184.168 10.9633 183.831 11.1 183.431 11.1C183.031 11.1 182.655 11.0667 182.301 11V9.65H182.751C182.878 9.65 182.981 9.60667 183.061 9.52C183.148 9.43333 183.195 9.32667 183.201 9.2L183.501 4H189.051V11H187.251V5.4H185.151L184.901 9.55ZM195.802 11H190.252V4H195.802V5.4H192.052V6.75H195.002V8.15H192.052V9.6H195.802V11ZM201.7 3.9C201.867 3.9 202.167 3.93333 202.6 4V5.35H202.2C202.1 5.35 202.01 5.38333 201.93 5.45C201.85 5.51 201.79 5.57667 201.75 5.65L200.8 7.45L202.75 11H200.85L199.3 8.15H198.4V11H196.6V4H198.4V6.75H199.3L200.3 4.85C200.447 4.57 200.627 4.34333 200.84 4.17C201.06 3.99 201.347 3.9 201.7 3.9ZM206.748 11H204.948V5.4H202.848V4H208.848V5.4H206.748V11ZM209.549 4H213.749C214.449 4 214.956 4.16 215.269 4.48C215.589 4.79333 215.749 5.3 215.749 6V7C215.749 7.7 215.589 8.21 215.269 8.53C214.956 8.84333 214.449 9 213.749 9H211.349V11H209.549V4ZM213.949 6C213.949 5.6 213.749 5.4 213.349 5.4H211.349V7.6H213.349C213.749 7.6 213.949 7.4 213.949 7V6ZM221.149 5.9C221.149 5.5 220.949 5.3 220.549 5.3H218.849C218.449 5.3 218.249 5.5 218.249 5.9V9.1C218.249 9.5 218.449 9.7 218.849 9.7H220.549C220.949 9.7 221.149 9.5 221.149 9.1V5.9ZM222.949 9.1C222.949 9.8 222.789 10.31 222.469 10.63C222.155 10.9433 221.649 11.1 220.949 11.1H218.449C217.749 11.1 217.239 10.9433 216.919 10.63C216.605 10.31 216.449 9.8 216.449 9.1V5.9C216.449 5.2 216.605 4.69333 216.919 4.38C217.239 4.06 217.749 3.9 218.449 3.9H220.949C221.649 3.9 222.155 4.06 222.469 4.38C222.789 4.69333 222.949 5.2 222.949 5.9V9.1ZM230.054 11H228.254V5.4H225.754V11H223.954V4H230.054V11ZM231.258 4H235.458C236.158 4 236.665 4.16 236.978 4.48C237.298 4.79333 237.458 5.3 237.458 6V7C237.458 7.7 237.298 8.21 236.978 8.53C236.665 8.84333 236.158 9 235.458 9H233.058V11H231.258V4ZM235.658 6C235.658 5.6 235.458 5.4 235.058 5.4H233.058V7.6H235.058C235.458 7.6 235.658 7.4 235.658 7V6ZM242.858 5.9C242.858 5.5 242.658 5.3 242.258 5.3H240.558C240.158 5.3 239.958 5.5 239.958 5.9V9.1C239.958 9.5 240.158 9.7 240.558 9.7H242.258C242.658 9.7 242.858 9.5 242.858 9.1V5.9ZM244.658 9.1C244.658 9.8 244.498 10.31 244.178 10.63C243.864 10.9433 243.358 11.1 242.658 11.1H240.158C239.458 11.1 238.948 10.9433 238.628 10.63C238.314 10.31 238.158 9.8 238.158 9.1V5.9C238.158 5.2 238.314 4.69333 238.628 4.38C238.948 4.06 239.458 3.9 240.158 3.9H242.658C243.358 3.9 243.864 4.06 244.178 4.38C244.498 4.69333 244.658 5.2 244.658 5.9V9.1ZM251.663 7.1L250.263 9.6H248.863L247.463 7.1V11H245.663V4H247.562L249.563 7.7L251.563 4H253.463V11H251.663V7.1ZM256.466 6.4H258.766C259.466 6.4 259.973 6.56 260.286 6.88C260.606 7.19333 260.766 7.7 260.766 8.4V9C260.766 9.7 260.606 10.21 260.286 10.53C259.973 10.8433 259.466 11 258.766 11H254.666V4H256.466V6.4ZM263.366 11H261.566V4H263.366V11ZM258.966 8.4C258.966 8 258.766 7.8 258.366 7.8H256.466V9.6H258.366C258.766 9.6 258.966 9.4 258.966 9V8.4ZM273.369 11H264.569V4H266.369V9.6H268.069V4H269.869V9.6H271.569V4H273.369V11ZM276.669 9.55C276.635 10.03 276.482 10.41 276.209 10.69C275.935 10.9633 275.599 11.1 275.199 11.1C274.799 11.1 274.422 11.0667 274.069 11V9.65H274.519C274.645 9.65 274.749 9.60667 274.829 9.52C274.915 9.43333 274.962 9.32667 274.969 9.2L275.269 4H280.819V11H279.019V5.4H276.919L276.669 9.55ZM287.57 11H282.02V4H287.57V5.4H283.82V6.75H286.77V8.15H283.82V9.6H287.57V11ZM294.468 11H292.668V8.15H290.168V11H288.368V4H290.168V6.75H292.668V4H294.468V11ZM301.772 11H299.972V8.15H297.472V11H295.672V4H297.472V6.75H299.972V4H301.772V11ZM304.227 11H302.277L304.927 4H306.927L309.577 11H307.627L307.177 9.75H304.677L304.227 11ZM305.127 8.45H306.727L305.927 6.1L305.127 8.45ZM316.077 11H314.277V8.7H312.927L311.677 11H309.777L311.077 8.6C310.65 8.5 310.343 8.29667 310.157 7.99C309.97 7.68333 309.877 7.25333 309.877 6.7V6C309.877 5.3 310.033 4.79333 310.347 4.48C310.667 4.16 311.177 4 311.877 4H316.077V11ZM311.677 6.7C311.677 7.1 311.877 7.3 312.277 7.3H314.277V5.4H312.277C311.877 5.4 311.677 5.6 311.677 6V6.7ZM182.7 25H180.9V20.7L178.5 25H176.6V18H178.4V22.3L180.8 18H182.7V25ZM190.005 25H188.205V22.15H185.705V25H183.905V18H185.705V20.75H188.205V18H190.005V25ZM199.659 17.9C199.826 17.9 200.126 17.9333 200.559 18V19.35H200.159C200.059 19.35 199.969 19.3833 199.889 19.45C199.809 19.51 199.749 19.5767 199.709 19.65L198.759 21.45L200.709 25H198.809L197.259 22.15H196.559V25H194.759V22.15H194.059L192.509 25H190.609L192.559 21.45L191.609 19.65C191.569 19.5767 191.509 19.51 191.429 19.45C191.349 19.3833 191.259 19.35 191.159 19.35H190.759V18C191.193 17.9333 191.493 17.9 191.659 17.9C192.013 17.9 192.296 17.99 192.509 18.17C192.729 18.3433 192.913 18.57 193.059 18.85L194.059 20.75H194.759V18H196.559V20.75H197.259L198.259 18.85C198.406 18.57 198.586 18.3433 198.799 18.17C199.019 17.99 199.306 17.9 199.659 17.9ZM206.857 25H201.307V18H206.857V19.4H203.107V20.75H206.057V22.15H203.107V23.6H206.857V25ZM213.755 25H211.955V22.15H209.455V25H207.655V18H209.455V20.75H211.955V18H213.755V25ZM220.509 25H214.959V18H220.509V19.4H216.759V20.75H219.709V22.15H216.759V23.6H220.509V25ZM221.307 18H225.507C226.207 18 226.714 18.16 227.027 18.48C227.347 18.7933 227.507 19.3 227.507 20V21C227.507 21.7 227.347 22.21 227.027 22.53C226.714 22.8433 226.207 23 225.507 23H223.107V25H221.307V18ZM225.707 20C225.707 19.6 225.507 19.4 225.107 19.4H223.107V21.6H225.107C225.507 21.6 225.707 21.4 225.707 21V20ZM234.507 25H232.707V22.15H230.207V25H228.407V18H230.207V20.75H232.707V18H234.507V25ZM236.961 25H235.011L237.661 18H239.661L242.311 25H240.361L239.911 23.75H237.411L236.961 25ZM237.861 22.45H239.461L238.661 20.1L237.861 22.45ZM248.811 25H247.011V22.7H245.661L244.411 25H242.511L243.811 22.6C243.384 22.5 243.078 22.2967 242.891 21.99C242.704 21.6833 242.611 21.2533 242.611 20.7V20C242.611 19.3 242.768 18.7933 243.081 18.48C243.401 18.16 243.911 18 244.611 18H248.811V25ZM244.411 20.7C244.411 21.1 244.611 21.3 245.011 21.3H247.011V19.4H245.011C244.611 19.4 244.411 19.6 244.411 20V20.7ZM181.7 32.9C181.867 32.9 182.167 32.9333 182.6 33V34.35H182.2C182.1 34.35 182.01 34.3833 181.93 34.45C181.85 34.51 181.79 34.5767 181.75 34.65L180.8 36.45L182.75 40H180.85L179.3 37.15H178.4V40H176.6V33H178.4V35.75H179.3L180.3 33.85C180.447 33.57 180.627 33.3433 180.84 33.17C181.06 32.99 181.347 32.9 181.7 32.9ZM187.848 34.9C187.848 34.5 187.648 34.3 187.248 34.3H185.548C185.148 34.3 184.948 34.5 184.948 34.9V38.1C184.948 38.5 185.148 38.7 185.548 38.7H187.248C187.648 38.7 187.848 38.5 187.848 38.1V34.9ZM189.648 38.1C189.648 38.8 189.488 39.31 189.168 39.63C188.855 39.9433 188.348 40.1 187.648 40.1H185.148C184.448 40.1 183.938 39.9433 183.618 39.63C183.305 39.31 183.148 38.8 183.148 38.1V34.9C183.148 34.2 183.305 33.6933 183.618 33.38C183.938 33.06 184.448 32.9 185.148 32.9H187.648C188.348 32.9 188.855 33.06 189.168 33.38C189.488 33.6933 189.648 34.2 189.648 34.9V38.1ZM196.653 36.1L195.253 38.6H193.853L192.453 36.1V40H190.653V33H192.553L194.553 36.7L196.553 33H198.453V40H196.653V36.1ZM205.757 40H203.957V34.4H201.457V40H199.657V33H205.757V40ZM208.211 40H206.261L208.911 33H210.911L213.561 40H211.611L211.161 38.75H208.661L208.211 40ZM209.111 37.45H210.711L209.911 35.1L209.111 37.45ZM220.161 40H218.361V37.15H215.861V40H214.061V33H215.861V35.75H218.361V33H220.161V40ZM227.466 40H225.666V35.7L223.266 40H221.366V33H223.166V37.3L225.566 33H227.466V40ZM234.67 40H232.87V37.7H231.52L230.27 40H228.37L229.67 37.6C229.244 37.5 228.937 37.2967 228.75 36.99C228.564 36.6833 228.47 36.2533 228.47 35.7V35C228.47 34.3 228.627 33.7933 228.94 33.48C229.26 33.16 229.77 33 230.47 33H234.67V40ZM230.27 35.7C230.27 36.1 230.47 36.3 230.87 36.3H232.87V34.4H230.87C230.47 34.4 230.27 34.6 230.27 35V35.7Z" fill="#0081CA"/>
<path fill-rule="evenodd" clip-rule="evenodd" d="M54.9996 13.8684C54.9998 13.8746 55 13.8802 55 13.8852H47C47 9.73558 49.6942 7.06553 52.523 5.68117C55.2696 4.33704 58.6109 3.89137 61.6703 4.02166C64.7428 4.1525 68.0194 4.88453 70.671 6.3672C73.2994 7.83682 76.0002 10.5035 76 14.5368L76 22.8811C76 22.881 76 22.8811 72 22.8851C68 22.8892 68 22.8891 68 22.8891L68 14.5365C68 14.4685 67.9946 14.3912 67.8743 14.2274C67.7238 14.0226 67.3947 13.7009 66.7667 13.3498C65.4809 12.6308 63.5075 12.1071 61.3299 12.0144C59.1393 11.9211 57.2305 12.284 56.0396 12.8669C54.9852 13.3829 54.996 13.7475 54.9996 13.8684Z" fill="#0081CA"/>
<path fill-rule="evenodd" clip-rule="evenodd" d="M54.9998 30.0158C54.9999 30.01 55 30.0048 55 30L47 30C47 34.1425 49.6856 36.8193 52.5073 38.2156C55.2511 39.5732 58.5924 40.036 61.6573 39.9155C64.7337 39.7945 68.0194 39.0672 70.6797 37.571C73.3322 36.0792 76.0002 33.3893 76 29.3484L76 21.0071C76 21.0072 76 21.007 72 21C68 20.9931 68 20.9932 68 20.9933L68 20.995L68 29.3487C68 29.3495 68 29.3506 68.0001 29.352C68.0013 29.4072 68.0123 29.8928 66.7581 30.5981C65.481 31.3164 63.5166 31.8362 61.343 31.9217C59.1579 32.0076 57.2491 31.6361 56.0553 31.0454C54.9886 30.5175 54.9969 30.1418 54.9998 30.0158Z" fill="#0081CA"/>
<path d="M137.364 21.6802L119 40.0001L113 34.6552L131.677 16.0001L137.364 21.6802Z" fill="#0081CA"/>
<rect x="87" y="4" width="36" height="8" transform="rotate(90 87 4)" fill="#0081CA"/>
<rect x="108" y="4" width="36" height="8" transform="rotate(90 108 4)" fill="#0081CA"/>
<rect x="139" y="4" width="36" height="8" transform="rotate(90 139 4)" fill="#0081CA"/>
<rect x="119" y="4" width="36" height="8" transform="rotate(90 119 4)" fill="#007FC7"/>
<path d="M153.819 16.1062L172.5 40L164.5 40L148 21.7502L153.819 16.1062Z" fill="#0081CA"/>
<rect x="59" y="19" width="17" height="6" fill="#0081CA"/>
<path d="M137.364 21.6802L119 40.0001L113 34.6552L131.677 16.0001L137.364 21.6802Z" fill="#0081CA"/>
<rect x="87" y="4" width="36" height="8" transform="rotate(90 87 4)" fill="#0081CA"/>
<path d="M150 4L150 40L142 40L142 4L150 4Z" fill="#0081CA"/>
<rect x="108" y="4" width="36" height="8" transform="rotate(90 108 4)" fill="#0081CA"/>
<rect x="139" y="4" width="36" height="8" transform="rotate(90 139 4)" fill="#0081CA"/>
<rect x="119" y="4" width="36" height="8" transform="rotate(90 119 4)" fill="#007FC7"/>
<path d="M147.029 20.6824L163 4.00007L171 4L152.012 26.2041L147.029 20.6824Z" fill="#0081CA"/>
<rect x="79" y="4" width="29" height="8" fill="#0081CA"/>
<path fill-rule="evenodd" clip-rule="evenodd" d="M21.6222 15.4644L15.1265 40.625L10.2848 40.6231L7.59133 30.1572H0V25.1572H11.4675L12.7097 29.9841L19.5 3.53572L24.4565 3.53582L28.5424 25.1572H34.5V30.1572H24.3988L21.6222 15.4644Z" fill="#0081CA"/>
<path fill-rule="evenodd" clip-rule="evenodd" d="M38 31C39.6569 31 41 29.6569 41 28C41 26.3431 39.6569 25 38 25C36.3431 25 35 26.3431 35 28C35 29.6569 36.3431 31 38 31ZM38 34C41.3137 34 44 31.3137 44 28C44 24.6863 41.3137 22 38 22C34.6863 22 32 24.6863 32 28C32 31.3137 34.6863 34 38 34Z" fill="#0081CA"/>
</svg>
