<svg width="176" height="47" viewBox="0 0 176 47" fill="none" xmlns="http://www.w3.org/2000/svg">
<path d="M0.0925001 36.72C10.5032 37.36 17.5432 37.68 21.2125 37.68C22.1938 37.68 22.9618 37.4027 23.5165 36.848C24.1138 36.2507 24.4125 35.4613 24.4125 34.48V28.4H7.3885V19.44H24.4125V14C24.4125 11.44 23.1325 10.16 20.5725 10.16H0.7325V1.2H23.1325C27.6125 1.2 30.8552 2.224 32.8605 4.272C34.9085 6.27733 35.9325 9.52 35.9325 14V34.48C35.9325 38.6613 34.9512 41.7333 32.9885 43.696C31.0258 45.6587 27.9538 46.64 23.7725 46.64C17.3725 46.64 9.47917 46.2133 0.0925001 45.36V36.72ZM81.38 46H69.86V10.16H53.86V46H42.34V1.2H81.38V46ZM128.13 46H116.61V18.48L101.25 46H89.09V1.2H100.61V28.72L115.97 1.2H128.13V46ZM168.48 0.559998C169.547 0.559998 171.467 0.773331 174.24 1.2V9.84H171.68C171.04 9.84 170.464 10.0533 169.952 10.48C169.44 10.864 169.056 11.2907 168.8 11.76L162.72 23.28L175.2 46H163.04L153.12 27.76H147.36V46H135.84V1.2H147.36V18.8H153.12L159.52 6.64C160.459 4.848 161.611 3.39733 162.976 2.288C164.384 1.136 166.219 0.559998 168.48 0.559998Z" fill="#0081CA"/>
</svg>
